# xmcd CD database file
#
# Track frame offsets:
#	182
#	14140
#	33547
#	50652
#	67770
#	101802
#	120552
#	143230
#	165885
#	185122
#	205182
#	226597
#
# Disc length: 3346 seconds
#
# Revision: 1
# Processed by: cddbd v1.5.1PL0 Copyright (c) Steve Scherf et al.
# Submitted via: CDex 1.51
#
DISCID=a20d100c
DTITLE=Jimmy Joe's Band - Few Minutes Blues
DYEAR=1996
DGENRE=Blues
TTITLE0=Few Minutes Blues
TTITLE1=Don't Take Advantage of Me
TTITLE2=I've Lost My Job
TTITLE3=Cross Cut Saw
TTITLE4=Tin Pan Alley
TTITLE5=Hug You and Squeeze You
TTITLE6=Delirio
TTITLE7=Trouble No More
TTITLE8=Jimmy Joe's Walk
TTITLE9=Heartbreak Hotel
TTITLE10=Before You Accuse Me
TTITLE11=Rainbow
EXTD=YEAR: 1996
EXTT0=
EXTT1=
EXTT2=
EXTT3=
EXTT4=
EXTT5=
EXTT6=
EXTT7=
EXTT8=
EXTT9=
EXTT10=
EXTT11=
PLAYORDER=
